<svg width="71" height="71" viewBox="0 0 71 71" fill="none" xmlns="http://www.w3.org/2000/svg">
<path d="M65.0336 53.3663C62.6286 50.9433 56.804 47.4073 53.9781 45.9823C50.2979 44.1287 49.995 43.9773 47.1024 46.1262C45.173 47.5602 43.8902 48.8414 41.6322 48.3598C39.3741 47.8783 34.4673 45.163 30.1707 40.8804C25.8742 36.5978 23.0013 31.5489 22.5182 29.2986C22.0351 27.0483 23.3375 25.7808 24.7581 23.8469C26.7602 21.1211 26.6087 20.6668 24.8974 16.9869C23.5631 14.1247 19.9239 8.35504 17.4917 5.96235C14.8898 3.39249 14.8898 3.84679 13.2133 4.5434C11.8485 5.11762 10.539 5.81563 9.30148 6.62867C6.87834 8.23843 5.5335 9.57561 4.59302 11.5852C3.65254 13.5947 3.23001 18.3059 8.08688 27.1285C12.9438 35.9512 16.3513 40.4625 23.4041 47.4951C30.457 54.5278 35.8803 58.3092 43.8085 62.7553C53.6161 68.2479 57.378 67.1772 59.3938 66.2383C61.4095 65.2994 62.7528 63.9668 64.3657 61.5438C65.1809 60.3084 65.8805 59.0006 66.4557 57.6368C67.1539 55.9665 67.6082 55.9665 65.0336 53.3663Z" stroke="#51CA73" stroke-width="7" stroke-miterlimit="10"/>
</svg>
