<svg width="49" height="49" viewBox="0 0 49 49" fill="none" xmlns="http://www.w3.org/2000/svg">
<path d="M38.0899 7.83235C34.228 4.74239 29.4288 3.06006 24.4829 3.0625C18.6526 3.0625 13.2071 5.30866 9.13592 9.38752C5.20157 13.3343 3.04538 18.5454 3.0626 24.0569C3.06274 28.0978 4.24905 32.0497 6.47442 35.4226L6.4926 35.4484C6.5194 35.4877 6.54715 35.5269 6.57491 35.5652C6.60266 35.6035 6.63711 35.6532 6.64477 35.6657L6.66583 35.704C6.77397 35.8954 6.85723 36.1289 6.78354 36.3643L5.02069 42.7439C4.95016 42.9811 4.91154 43.2267 4.90584 43.4741C4.90457 44.125 5.16147 44.7499 5.6202 45.2116C6.07894 45.6734 6.70207 45.9345 7.35297 45.9375C7.69693 45.9261 8.03589 45.8519 8.35307 45.7183L14.8121 43.387L14.8934 43.3554C15.0691 43.2817 15.2579 43.2442 15.4485 43.2454C15.6242 43.2458 15.7983 43.2782 15.9624 43.3411C16.1175 43.4014 17.5253 43.9402 19.0106 44.3555C20.2451 44.7001 22.8138 45.2169 24.8265 45.2169C30.5351 45.2169 35.8658 43.0061 39.8356 38.9904C43.7709 35.0053 45.9376 29.7082 45.9376 24.0684C45.9381 22.6207 45.7848 21.177 45.4801 19.7617C44.4906 15.1087 41.8664 10.8709 38.0899 7.83235ZM15.3126 27.5625C14.7069 27.5625 14.1148 27.3829 13.6112 27.0464C13.1075 26.7099 12.715 26.2316 12.4832 25.672C12.2514 25.1124 12.1908 24.4966 12.3089 23.9025C12.4271 23.3085 12.7188 22.7628 13.1471 22.3345C13.5754 21.9062 14.1211 21.6145 14.7151 21.4963C15.3092 21.3782 15.925 21.4388 16.4846 21.6706C17.0442 21.9024 17.5225 22.2949 17.859 22.7986C18.1955 23.3022 18.3751 23.8943 18.3751 24.5C18.3751 25.3122 18.0524 26.0912 17.4781 26.6655C16.9038 27.2398 16.1248 27.5625 15.3126 27.5625ZM24.5001 27.5625C23.8944 27.5625 23.3023 27.3829 22.7987 27.0464C22.295 26.7099 21.9025 26.2316 21.6707 25.672C21.4389 25.1124 21.3783 24.4966 21.4964 23.9025C21.6146 23.3085 21.9063 22.7628 22.3346 22.3345C22.7629 21.9062 23.3086 21.6145 23.9026 21.4963C24.4967 21.3782 25.1125 21.4388 25.6721 21.6706C26.2317 21.9024 26.71 22.2949 27.0465 22.7986C27.383 23.3022 27.5626 23.8943 27.5626 24.5C27.5626 25.3122 27.2399 26.0912 26.6656 26.6655C26.0913 27.2398 25.3123 27.5625 24.5001 27.5625ZM33.6876 27.5625C33.0819 27.5625 32.4898 27.3829 31.9862 27.0464C31.4825 26.7099 31.09 26.2316 30.8582 25.672C30.6264 25.1124 30.5658 24.4966 30.6839 23.9025C30.8021 23.3085 31.0938 22.7628 31.5221 22.3345C31.9504 21.9062 32.4961 21.6145 33.0901 21.4963C33.6842 21.3782 34.3 21.4388 34.8596 21.6706C35.4192 21.9024 35.8975 22.2949 36.234 22.7986C36.5705 23.3022 36.7501 23.8943 36.7501 24.5C36.7501 25.3122 36.4274 26.0912 35.8531 26.6655C35.2788 27.2398 34.4998 27.5625 33.6876 27.5625Z" fill="#F08E2A"/>
</svg>
